PathFileType	4	(X/Y/Z)	/Users/niels/Desktop/University/Third Semester/Perception and Action/Exam/Gymnastics Motion Tracking/Code for Gym Tracking/Analyzed Data/Webcam_Backflip/id4_4_baseline_Sports2D/id4_4_baseline_Sports2D_px_person00.trc
DataRate	CameraRate	NumFrames	NumMarkers	Units	OrigDataRate	OrigDataStartFrame	OrigNumFrames
29.8125	29.8125	9	22	m	29.8125	40	160
Frame#	Time	Hip			RHip			RKnee			RAnkle			RBigToe			RSmallToe			RHeel			LHip			LKnee			LAnkle			LBigToe			LSmallToe			LHeel			Neck			Head			Nose			RShoulder			RElbow			RWrist			LShoulder			LElbow			LWrist		
		X1	Y1	Z1	X2	Y2	Z2	X3	Y3	Z3	X4	Y4	Z4	X5	Y5	Z5	X6	Y6	Z6	X7	Y7	Z7	X8	Y8	Z8	X9	Y9	Z9	X10	Y10	Z10	X11	Y11	Z11	X12	Y12	Z12	X13	Y13	Z13	X14	Y14	Z14	X15	Y15	Z15	X16	Y16	Z16	X17	Y17	Z17	X18	Y18	Z18	X19	Y19	Z19	X20	Y20	Z20	X21	Y21	Z21	X22	Y22	Z22
40	1.341719077568134	0.9057508473571474	-0.6334458063091548	0.0	0.9023622923562471	-0.6343129021221412	0.0	0.9760243040442381	-0.7151727607502133	0.0	0.9398349434773445	-0.80730813550563	0.0	0.9770358629032249	-0.8236687978331513	0.0	0.9680934026685645	-0.8264758269627631	0.0	0.9288311194184123	-0.818225282299516	0.0	0.9102787044763104	-0.631474891142737	0.0	0.976215102238162	-0.7125545854294829	0.0	0.9408415919878197	-0.805340517241454	0.0	0.9779921358867447	-0.8234934418753402	0.0	0.9716587577289939	-0.8218823279881923	0.0	0.925924462699162	-0.8162879825595867	0.0	0.9776890483218158	-0.5031862504293113	0.0	1.0027209030797917	-0.4367344169045358	0.0	1.0136773633383882	-0.46773498704776767	0.0	0.9685739505073686	-0.5196579509177831	0.0	0.9899056684426288	-0.5721410769383848	0.0	1.0217967368364582	-0.6003312541269434	0.0	0.9720345325587909	-0.515624291798035	0.0	0.993244619581587	-0.5576303663202664	0.0	1.0220817188111662	-0.5799032505700715	0.0
41	1.3752620545073373	0.9091128371379825	-0.6477757559126457	0.0	0.905089243540966	-0.6486006385695965	0.0	0.9719627770481741	-0.7345295096302829	0.0	0.9393461190237336	-0.8264405450559317	0.0	0.976392932449978	-0.8407415465557234	0.0	0.9676106206195072	-0.843932368884269	0.0	0.9284276054585558	-0.8369780008055198	0.0	0.9137821888355676	-0.6461069461076951	0.0	0.9719211727015801	-0.732223145696792	0.0	0.94018933319391	-0.8244681267757912	0.0	0.9769041008959144	-0.8399915603195032	0.0	0.9695172004876963	-0.8385407563669242	0.0	0.9256801173219608	-0.8344996230575519	0.0	0.9695273305161674	-0.5115599045163496	0.0	0.9854707014550924	-0.4418490536022974	0.0	1.0013058216051782	-0.47378056412932196	0.0	0.9606592594732091	-0.5276153852673575	0.0	1.003650926235622	-0.5671633802956515	0.0	1.0501278050478686	-0.5776248389824727	0.0	0.9668773894658188	-0.5230287882534611	0.0	1.0069705144034884	-0.5509322404590147	0.0	1.0490732395906084	-0.5557767010001706	0.0
42	1.4088050314465406	0.9141887220623465	-0.6551942555431253	0.0	0.9101895967395024	-0.6556109297158269	0.0	0.9688077935818078	-0.7473272947645115	0.0	0.9393417297087052	-0.8400461709273026	0.0	0.9751849971097182	-0.853329946274686	0.0	0.9666801345929876	-0.8567501289668845	0.0	0.9285127221892863	-0.8505751465493667	0.0	0.9184441235457159	-0.6535196004176725	0.0	0.9683242567592463	-0.7452965479711814	0.0	0.9397930751212185	-0.8379253622629955	0.0	0.9754692058383435	-0.8519478474902974	0.0	0.9671641905879237	-0.8503745338861112	0.0	0.9253998466007682	-0.8471763325732747	0.0	0.960181122546048	-0.5142860024202996	0.0	0.9669980874904138	-0.4421654280938031	0.0	0.9876560343853892	-0.4743947389569549	0.0	0.9526850162534332	-0.5292884301458893	0.0	1.0094464872424491	-0.5485242508397788	0.0	1.0603157071082288	-0.5371745073169751	0.0	0.9597784833343236	-0.5237840961370859	0.0	1.0114403807578738	-0.5323935217212089	0.0	1.0576993965916333	-0.5167206999243794	0.0
43	1.442348008385744	0.9206592877306321	-0.6532918312417049	0.0	0.9173487607280932	-0.6530113444864537	0.0	0.9677839301573682	-0.7504678318766594	0.0	0.9399886316247905	-0.8449165309909165	0.0	0.9728531114541312	-0.8587964235635933	0.0	0.9647846655370729	-0.8620454015185206	0.0	0.9292569371248436	-0.8559039718989065	0.0	0.923869003558816	-0.6513757383438555	0.0	0.9666453451752127	-0.7485796456644346	0.0	0.939809090588906	-0.8426080351256696	0.0	0.973690368136019	-0.8569558306613032	0.0	0.9647321366707307	-0.8549905961809464	0.0	0.9253867276360125	-0.851557393695952	0.0	0.9493380047443214	-0.5096301984466365	0.0	0.9470369760601316	-0.4360627979481814	0.0	0.9722055226643144	-0.4678319583605194	0.0	0.9442371684682459	-0.5231707142539687	0.0	1.0055728705390172	-0.5188794668662424	0.0	1.051270433248778	-0.4870780096867027	0.0	0.9500826376589381	-0.5167863884849168	0.0	1.0055725369275392	-0.5052944390679092	0.0	1.0471664312346456	-0.47070082173366806	0.0
44	1.4758909853249473	0.927892218557377	-0.640763231786218	0.0	0.9256570273972842	-0.6397758605205698	0.0	0.9702433886265438	-0.7419067251754186	0.0	0.9418882104626339	-0.8387233523675099	0.0	0.9699553552599286	-0.8551852790992204	0.0	0.9623950910510707	-0.857791749341806	0.0	0.9311187208426891	-0.8505784807785138	0.0	0.9294717913214382	-0.6386216576732111	0.0	0.9682077104289791	-0.7399689994839272	0.0	0.941011796745047	-0.8362687049759888	0.0	0.9722148105415245	-0.8530977655455952	0.0	0.9629975502862289	-0.8505851987729424	0.0	0.9263789799812486	-0.8455835849805093	0.0	0.936706092436454	-0.49694991427111107	0.0	0.9249866255416507	-0.4230207101380662	0.0	0.9543402332469485	-0.4534561323176777	0.0	0.9345167082873864	-0.5088967722409474	0.0	0.9927851317196744	-0.48265608530873505	0.0	1.0269245933295252	-0.4356181384606577	0.0	0.9376371456596313	-0.5020344604938206	0.0	0.9910243588968306	-0.4735566062067789	0.0	1.0217845558093528	-0.4247799248353612	0.0
45	1.5094339622641506	0.9349428861987533	-0.6179761161818721	0.0	0.9338029870411052	-0.6166025184672806	0.0	0.9773940748103441	-0.7208602444517207	0.0	0.9461443263188254	-0.8202072613648538	0.0	0.9684467279835512	-0.8412165836986931	0.0	0.9613525787883632	-0.8428235689415019	0.0	0.9350494973458583	-0.8330942422954544	0.0	0.9345164334016415	-0.6158878763225452	0.0	0.9741994844763819	-0.7186595082340005	0.0	0.9446940329986784	-0.817652042766541	0.0	0.9724439098892261	-0.8389754183818331	0.0	0.9632068758989074	-0.8360135233945153	0.0	0.9296215134530458	-0.8279814941725422	0.0	0.9220794594947468	-0.4771378423878651	0.0	0.9004667614661134	-0.4042203576542346	0.0	0.9337336124786925	-0.43218522867507553	0.0	0.9227285121940416	-0.48763414448926606	0.0	0.9738109025002962	-0.4450048541365085	0.0	0.9943812188312088	-0.38922733685668576	0.0	0.9226959376093611	-0.4808126196427909	0.0	0.970955134351044	-0.44087884224034274	0.0	0.9886941141430153	-0.3836638560897355	0.0
46	1.542976939203354	0.940777532847236	-0.5872454139971945	0.0	0.9405146419245957	-0.5859776822723105	0.0	0.9896268998955701	-0.6876780687126686	0.0	0.9540323661875104	-0.7892155425250067	0.0	0.9707487491006166	-0.8162017911689974	0.0	0.9640660636077056	-0.8166766381496056	0.0	0.942294801421482	-0.802974235336713	0.0	0.9384390545595375	-0.5855259927139311	0.0	0.9851098249985701	-0.6850655570809263	0.0	0.9521838145745279	-0.786553225631733	0.0	0.9761506010089651	-0.8137888405513471	0.0	0.9667548349475799	-0.8107208618265012	0.0	0.9365292805459559	-0.7983944221264945	0.0	0.9055548470126136	-0.45260965410402965	0.0	0.8739114866631778	-0.382376704890893	0.0	0.9107010350663504	-0.4065085181880036	0.0	0.9085509579925981	-0.46199407107619733	0.0	0.9522877765400126	-0.41064619242694983	0.0	0.9612915626457668	-0.35159126140130875	0.0	0.9059813705398461	-0.4555868182647549	0.0	0.9489590287400139	-0.4104278069375469	0.0	0.9554844605146872	-0.3498689914425967	0.0
47	1.5765199161425574	0.944703881184194	-0.5524839158923754	0.0	0.9450332302266863	-0.5517533924509691	0.0	1.0057592713779129	-0.6435891500922315	0.0	0.9663688664364684	-0.7466746125852337	0.0	0.978598010127827	-0.7799382509365494	0.0	0.9723840206191465	-0.7794045203976498	0.0	0.9538184925509597	-0.7609646494866769	0.0	0.9411285245951446	-0.5511945636487217	0.0	0.9999919434237134	-0.640643093845759	0.0	0.9642372909032948	-0.7438525241965126	0.0	0.9848879082793094	-0.7773645824099801	0.0	0.9751380518094184	-0.7745678226208408	0.0	0.9480789601841585	-0.7574623844625583	0.0	0.887782388105413	-0.4267838601773487	0.0	0.8466995303792151	-0.36098623711202643	0.0	0.8863497881924558	-0.3799914807029288	0.0	0.8924867731636857	-0.43542395270137585	0.0	0.9317903553224353	-0.3830621033144411	0.0	0.9338389126603577	-0.32389951945016326	0.0	0.8886888369338298	-0.4295361040238839	0.0	0.9285145764311378	-0.3846996687834776	0.0	0.928469760425718	-0.3243825799284958	0.0
48	1.6100628930817606	0.9467481073148536	-0.5180307033864384	0.0	0.9474289338435408	-0.518088718290761	0.0	1.0228048738575308	-0.5905381001448677	0.0	0.9829898669106041	-0.6944674654761693	0.0	0.9928136258558019	-0.7325508840598917	0.0	0.9872764149612587	-0.7314046563910218	0.0	0.9698193491971201	-0.7090937734784811	0.0	0.9429315334052886	-0.5168977627008479	0.0	1.016125678256633	-0.587691812491709	0.0	0.9806198804316288	-0.6914547496977219	0.0	0.9994811337083044	-0.7299917281152482	0.0	0.9896338148656261	-0.7276676712070344	0.0	0.9643908738685267	-0.7068000251954697	0.0	0.8699094094261076	-0.4031741399764663	0.0	0.8206866737512587	-0.3433948879214388	0.0	0.8622860752846809	-0.35636766651780183	0.0	0.8758208661184577	-0.41123598299536734	0.0	0.9151228659823822	-0.3638143557819646	0.0	0.9157501040828303	-0.30545213180454744	0.0	0.8721753400548126	-0.40581031203788615	0.0	0.9123715177828196	-0.365174849373695	0.0	0.9115150436134053	-0.3069859461458923	0.0
